<?xml version="1.0" encoding="utf-8"?>
<!-- Generator: Adobe Illustrator 19.0.1, SVG Export Plug-In . SVG Version: 6.00 Build 0)  -->
<svg version="1.1" id="Capa_1" xmlns="http://www.w3.org/2000/svg" xmlns:xlink="http://www.w3.org/1999/xlink" x="0px" y="0px"
	 viewBox="-164 288.1 266.8 266.8" style="enable-background:new -164 288.1 266.8 266.8;" xml:space="preserve">
<style type="text/css">
	.st0{fill:url(#SVGID_1_);}
	.st1{fill:url(#SVGID_2_);}
	.st2{fill:url(#SVGID_3_);}
	.st3{fill:url(#SVGID_4_);}
</style>
<g>
	<linearGradient id="SVGID_1_" gradientUnits="userSpaceOnUse" x1="-73.899" y1="430.6665" x2="74.049" y2="430.6665">
		<stop  offset="0" style="stop-color:#050958"/>
		<stop  offset="1" style="stop-color:#3137A2"/>
	</linearGradient>
	<path class="st0" d="M-69.3,391.4c-2.5,0-4.6,2-4.6,4.6v69.4c0,2.5,2,4.6,4.6,4.6h46.3h46.3h46.3c2.5,0,4.6-2,4.6-4.6V396
		c0-2.5-2-4.6-4.6-4.6s-4.6,2-4.6,4.6v64.8H27.8V396c0-2.5-2-4.6-4.6-4.6h-46.3c-2.5,0-4.6,2-4.6,4.6v64.8h-37.1V396
		C-64.8,393.4-66.8,391.4-69.3,391.4z M-18.5,400.5h37.1v60.3h-37.1L-18.5,400.5L-18.5,400.5z"/>
	<linearGradient id="SVGID_2_" gradientUnits="userSpaceOnUse" x1="-102.6475" y1="346.8925" x2="102.7955" y2="346.8925">
		<stop  offset="0" style="stop-color:#050958"/>
		<stop  offset="1" style="stop-color:#3137A2"/>
	</linearGradient>
	<path class="st1" d="M-94.8,399.2l94.9-94.9L95,399.2c0.9,0.9,2.1,1.3,3.2,1.3s2.3-0.4,3.2-1.3c1.8-1.8,1.8-4.7,0-6.5L53.7,345
		v-47.2c0-2.5-2-4.6-4.6-4.6s-4.6,2-4.6,4.6v38L3.3,294.6c-1.8-1.8-4.7-1.8-6.5,0l-98.1,98.1c-1.8,1.8-1.8,4.7,0,6.5
		C-99.5,401-96.6,401-94.8,399.2z"/>
	<linearGradient id="SVGID_3_" gradientUnits="userSpaceOnUse" x1="-102.648" y1="526.72" x2="102.795" y2="526.72">
		<stop  offset="0" style="stop-color:#050958"/>
		<stop  offset="1" style="stop-color:#3137A2"/>
	</linearGradient>
	<path class="st2" d="M98.2,498.5c-2.5,0-4.6,2-4.6,4.6v19H-93.5v-19c0-2.5-2-4.6-4.6-4.6s-4.6,2-4.6,4.6v47.2c0,2.5,2,4.6,4.6,4.6
		s4.6-2,4.6-4.6v-19H93.6v19c0,2.5,2,4.6,4.6,4.6s4.6-2,4.6-4.6v-47.2C102.8,500.6,100.7,498.5,98.2,498.5z"/>
	<linearGradient id="SVGID_4_" gradientUnits="userSpaceOnUse" x1="-163.999" y1="390.8145" x2="-107.659" y2="390.8145">
		<stop  offset="0" style="stop-color:#050958"/>
		<stop  offset="1" style="stop-color:#3137A2"/>
	</linearGradient>
	<path class="st3" d="M-112.2,297.2c2.5,0,4.6-2,4.6-4.6s-2-4.6-4.6-4.6h-47.2c-2.5,0-4.6,2-4.6,4.6s2,4.6,4.6,4.6h19v187.1h-19
		c-2.5,0-4.6,2-4.6,4.6s2,4.6,4.6,4.6h47.2c2.5,0,4.6-2,4.6-4.6s-2-4.6-4.6-4.6h-19V297.2H-112.2z"/>
</g>
</svg>
