<?xml version="1.0" encoding="utf-8"?>
<!-- Generator: Adobe Illustrator 19.0.1, SVG Export Plug-In . SVG Version: 6.00 Build 0)  -->
<svg version="1.1" id="Capa_1" xmlns="http://www.w3.org/2000/svg" xmlns:xlink="http://www.w3.org/1999/xlink" x="0px" y="0px"
	 viewBox="-113.4 382.1 426 458.3" style="enable-background:new -113.4 382.1 426 458.3;" xml:space="preserve">
<style type="text/css">
	.st0{fill:url(#SVGID_1_);}
	.st1{fill:url(#SVGID_2_);}
</style>
<g>
	<g>
		<linearGradient id="SVGID_1_" gradientUnits="userSpaceOnUse" x1="-113.4" y1="611.2401" x2="312.6" y2="611.2401">
			<stop  offset="0" style="stop-color:#050958"/>
			<stop  offset="1" style="stop-color:#3137A2"/>
		</linearGradient>
		<path class="st0" d="M266.3,715.8l-31-7.8l-0.1-1.8c-0.1-2-1.5-3.8-3.4-4.4l-46.7-15.6l-0.5-0.8c-1.6-2.5-3.6-4.7-6.1-6.3l-14-9.3
			l2.2-2.2c26.5-25.5,41.7-63.6,41.7-104.5c0-5.7-0.6-12.1-1.9-19.1l-0.1-0.6l0.2-0.6c0.1-0.3,0.2-0.7,0.2-1c0-0.4,5-38,7.7-82.9
			c1.1-17.5-4.4-34.5-15.4-48c-11-13.6-26.6-22.3-43.9-24.8c-19-2.6-37.8-4-55.9-4c-14,0-49.2,2.3-73.3,23.4l-0.7,0.6h-3.7
			c-12.5,0-24.5,5.2-33,14.3c-8.5,9.1-12.8,21.4-11.9,33.8c2.1,29.1,6,70.4,12.7,101.9c0.1,0.5,0.3,1,0.6,1.5l0.4,0.6v1
			c0,1.3-0.1,2.5-0.1,3.8c0,41,15.2,79.1,41.7,104.5l2.2,2.2l-14,9.3c-2.4,1.6-4.5,3.7-6.1,6.3l-0.5,0.8l-46.3,15.8
			c-1.9,0.6-3.3,2.4-3.4,4.4l-0.1,1.8l-31,7.8c-27.2,6.8-46.2,31.1-46.2,59.2v44.3c0,11.6,9.4,21,21,21h384c11.6,0,21-9.4,21-21
			v-44.3C312.5,747,293.5,722.6,266.3,715.8z M-5.7,526.2L-7.2,515c-2.4-18.2-4.4-38.9-6-61.3c-0.1-0.9-0.1-1.7-0.1-2.6
			c0-8.8,3.3-17.1,9.4-23.7c6.7-7.2,15.8-11.2,25.7-11.2h5.7c1.3,0,2.5-0.5,3.5-1.4c21.4-20.4,55.1-22.6,68.5-22.6
			c17.7,0,36,1.3,54.5,3.9c14.8,2.1,28.1,9.6,37.5,21.2s14.1,26.2,13.2,41.1c-0.9,15.4-2.2,31.6-3.8,48.1l-1,10.7l-3.8-10
			c-1.3-3.3-2.6-6.7-3.9-9.8c-0.8-1.9-2.6-3.1-4.6-3.1h-9.7c-57.1,0-111.1,0.1-157.8-15.8c-2.2-0.7-4.6,0.1-5.8,2
			c-6.9,10.7-12.5,22.4-16.5,35L-5.7,526.2z M0.5,563.3c0-26.2,6.6-51.3,19-72.4l1-1.7l1.9,0.6c46.9,14.6,99.6,14.5,155.4,14.5h6.4
			l0.6,1.6c6.3,15.8,13.7,38.6,13.7,57.4v3.2l-2.8-0.2c-0.1,0-0.1,0-0.2,0h-27v-11c0-2.8-2.2-5-5-5h-48c-2.8,0-5,2.2-5,5v5.8
			l-3.4-1.3c-4.9-1.9-10.3-1.9-15.2,0l-3.4,1.3v-5.8c0-2.8-2.2-5-5-5h-48c-2.8,0-5,2.2-5,5v11h-27c-0.1,0-0.2,0-0.2,0H3.2l-2.6,0.2
			L0.5,563.3z M1.3,579.1L1,576.3h29.5v3c0,2.8,2.2,5,5,5s5-2.2,5-5v-19h14v11c0,2.8,2.2,5,5,5s5-2.2,5-5v-11h14v19c0,2.8,2.2,5,5,5
			s5-2.2,5-5c0-6.1,4.9-11,11-11s11,4.9,11,11c0,2.8,2.2,5,5,5s5-2.2,5-5v-19h14v11c0,2.8,2.2,5,5,5s5-2.2,5-5v-11h14v19
			c0,2.8,2.2,5,5,5s5-2.2,5-5v-3H198l-0.3,2.8c-6.3,61.1-48.5,107.2-98.2,107.2S7.6,640.2,1.3,579.1z M148.7,683l-49.2,49.2
			L50.3,683l12.2,5.4c11.8,5.2,24.3,7.9,37,7.9s25.1-2.7,37-7.9L148.7,683z M-31.5,830.3v-27c0-2.8-2.2-5-5-5s-5,2.2-5,5v27h-51
			c-6.1,0-11-4.9-11-11V775c0-23.4,15.9-43.8,38.6-49.5l32-8l7.6,23.3c0.5,1.7,1.9,2.9,3.5,3.3l25.1,6.3l-12.1,18.1
			c-1,1.5-1.1,3.4-0.3,5l28.8,56.7h-51.2V830.3z M54.7,827.8v2.5H31.1L1.3,771.6L15.7,750c0.9-1.4,1.1-3.1,0.5-4.6s-1.9-2.7-3.5-3
			l-29.3-7.3l-8.3-25.3L11,697.9l0.5,2.8c0.4,1.9,1,3.7,1.8,5.5c5.6,11.3,14,28.1,21.1,42.1L46,771.6c0.2,0.5,0.5,0.9,0.7,1.4
			l0.1,0.3C54,792.5,54.8,815.7,54.7,827.8z M79,830.3H64.7v-2.5c0.2-11.4-0.6-33.6-6.9-53.6l-0.5-1.5l1.2-1.1
			c5.2-4.8,10.6-9.2,16.1-13.1l3.9-2.8v7.7c0,4.5,2.3,8.6,6.1,11l1.3,0.8L79,830.3z M55.4,760.9l-2.4,2.2l-1.5-2.9
			c-5.4-10.8-15.5-31.1-29.2-58.4c-2.5-5-0.9-11,3.7-14.1l8.8-5.9l55.7,55.7l-3.1,1.5C79.9,742.7,68.2,749.5,55.4,760.9z M89,830.3
			l6.9-54h7.2l6.9,54H89z M110.5,763.3c0,1.7-1.3,3-3,3h-16c-1.7,0-3-1.3-3-3v-13.6l1.3-0.7c3.8-2,6.9-3.3,8.7-4l0.9-0.4l0.9,0.4
			c1.9,0.7,4.9,2,8.7,4l1.3,0.7v13.6H110.5z M141.4,774.3c-6.3,20-7,42.1-6.9,53.4v2.5H120l-7-55.2l1.3-0.8c3.8-2.4,6.1-6.5,6.1-11
			v-7.7l3.9,2.8c5.6,4,11.1,8.4,16.3,13.3l1.2,1.1L141.4,774.3z M111.5,739l-3.1-1.5l55.7-55.7l8.8,5.9c4.6,3.1,6.2,9.1,3.7,14.1
			c-7,14-12.9,25.9-17.8,35.7c-4.9,9.8-8.7,17.4-11.4,22.7l-1.5,2.9l-2.4-2.2C130.8,749.5,119.1,742.7,111.5,739z M144.5,830.3v-2.5
			c-0.2-12.2,0.7-35.4,7.9-54.8c0.1-0.2,0.1-0.4,0.2-0.6l0.1-0.3l0.3-0.6l11.6-23.3c7-14,15.4-30.9,21.1-42.1
			c0.9-1.7,1.5-3.6,1.8-5.5l0.5-2.8l35.8,11.9l-8.3,25.3l-29.3,7.3c-1.6,0.4-2.9,1.5-3.4,3c-0.6,1.5-0.4,3.2,0.5,4.6l14.4,21.6
			l-29.8,58.7L144.5,830.3L144.5,830.3z M302.5,819.3c0,6.1-4.9,11-11,11h-51v-27c0-2.8-2.2-5-5-5s-5,2.2-5,5v27h-51.4l28.8-56.7
			c0.8-1.6,0.7-3.5-0.3-5l-12.1-18.1l25.1-6.3c1.7-0.4,3-1.6,3.5-3.3l7.6-23.3l32,8c22.8,5.7,38.6,26,38.6,49.5v44.2H302.5z"/>
	</g>
	<g>
		<linearGradient id="SVGID_2_" gradientUnits="userSpaceOnUse" x1="62.5016" y1="639.1909" x2="136.5158" y2="639.1909">
			<stop  offset="0" style="stop-color:#050958"/>
			<stop  offset="1" style="stop-color:#3137A2"/>
		</linearGradient>
		<path class="st1" d="M136.4,636c-0.3,1.3-1,2.4-2.1,3.2c-8.5,5.8-21.2,9.1-34.8,9.1s-26.3-3.3-34.8-9.1c-2.3-1.5-2.9-4.7-1.3-6.9
			c1.6-2.3,4.7-2.9,7-1.3c6.8,4.6,17.7,7.3,29.2,7.3s22.4-2.8,29.2-7.3c2.3-1.6,5.4-1,6.9,1.3C136.4,633.4,136.7,634.7,136.4,636z"
			/>
	</g>
</g>
</svg>
