<?xml version="1.0" encoding="utf-8"?>
<!-- Generator: Adobe Illustrator 19.0.1, SVG Export Plug-In . SVG Version: 6.00 Build 0)  -->
<svg version="1.1" id="Capa_1" xmlns="http://www.w3.org/2000/svg" xmlns:xlink="http://www.w3.org/1999/xlink" x="0px" y="0px"
	 viewBox="-53 176.9 488 488" style="enable-background:new -53 176.9 488 488;" xml:space="preserve">
<style type="text/css">
	.st0{fill:url(#SVGID_1_);}
	.st1{fill:url(#SVGID_2_);}
	.st2{fill:url(#SVGID_3_);}
	.st3{fill:url(#SVGID_4_);}
	.st4{fill:url(#SVGID_5_);}
	.st5{fill:url(#SVGID_6_);}
</style>
<g>
	<g>
		<linearGradient id="SVGID_1_" gradientUnits="userSpaceOnUse" x1="-49" y1="416.8894" x2="430.9998" y2="416.8894">
			<stop  offset="0" style="stop-color:#050958"/>
			<stop  offset="1" style="stop-color:#3137A2"/>
		</linearGradient>
		<path class="st0" d="M430.8,527.2l-24-112c-0.6-3-2.9-5.3-5.9-6.1l-61.8-15.5L311,365.6V240.6c5.2-6.8,8-15.2,8-23.8
			c0.1-22-17.8-39.9-39.8-40c-12.8,0-24.9,6.1-32.4,16.5L14.5,208.9l0,0c-26.5,0.2-47.7,21.9-47.5,48.4c0.1,13.5,5.9,26.3,16,35.3
			v260.3h-24c-4.4,0-8,3.6-8,8c0,0,0,0,0,0v88c0,4.4,3.6,8,8,8c0,0,0,0,0,0H71c4.4,0,8-3.6,8-8c0,0,0,0,0,0v-88c0-4.4-3.6-8-8-8
			c0,0,0,0,0,0H47V295.3l200-44.4v114.7l-27.7,27.7L158,401c-3.4,0.4-6.2,3-6.9,6.4l-24,120c-0.7,3.5,1,7.1,4.3,8.7l48,24
			c4,2,8.8,0.4,10.7-3.6c1-2,1.1-4.4,0.3-6.5L176,512.8l21.3-58l67.4-29.9h28.6l67.4,29.9l21.3,58L367.5,550
			c-1.6,4.1,0.4,8.8,4.6,10.4c2.1,0.8,4.5,0.7,6.5-0.3l48-24C429.8,534.4,431.6,530.8,430.8,527.2z M-33,640.9v-52.5l33.4,52.5H-33z
			 M63,640.9H29.6L63,588.4V640.9z M56.4,568.9L15,634l-41.4-65.1H56.4z M-1,552.9V302.1c10.3,3.7,21.7,3.7,32,0v250.8H-1z
			 M15,288.9c-17.7,0-32-14.3-32-32s14.3-32,32-32s32,14.3,32,32C47,274.6,32.7,288.9,15,288.9z M58.9,276.3
			c8.1-18.3,4-39.6-10.3-53.6l191.1-12.7c-0.4,2.3-0.7,4.6-0.7,7c0,6.4,1.6,12.7,4.7,18.3L58.9,276.3z M279,192.9
			c13.3,0,24,10.7,24,24s-10.7,24-24,24s-24-10.7-24-24C255,203.6,265.8,192.9,279,192.9z M295,253.5v107.4h-32V253.5
			C273.2,258,284.8,258,295,253.5z M390,536.5l8-20.7c0.7-1.8,0.7-3.8,0-5.7l-23.5-64c-0.7-2-2.3-3.7-4.3-4.6l-72-32
			c-1-0.5-2.1-0.7-3.3-0.7h-32c-1.1,0-2.2,0.2-3.3,0.7l-72,32c-2,0.9-3.5,2.5-4.3,4.6l-23.5,64c-0.7,1.8-0.7,3.8,0,5.7l8,20.7
			l-24-12l21.7-108.4l58.3-7.3c1.8-0.2,3.4-1,4.7-2.3l29.7-29.7h41.4l29.7,29.7c1,1,2.3,1.8,3.7,2.1l59.2,14.8l21.7,101.1L390,536.5
			z"/>
	</g>
</g>
<g>
	<g>
		<linearGradient id="SVGID_2_" gradientUnits="userSpaceOnUse" x1="-1" y1="256.89" x2="31" y2="256.89">
			<stop  offset="0" style="stop-color:#050958"/>
			<stop  offset="1" style="stop-color:#3137A2"/>
		</linearGradient>
		<circle class="st1" cx="15" cy="256.9" r="16"/>
	</g>
</g>
<g>
	<g>
		<linearGradient id="SVGID_3_" gradientUnits="userSpaceOnUse" x1="199.471" y1="528.8908" x2="358.53" y2="528.8908">
			<stop  offset="0" style="stop-color:#050958"/>
			<stop  offset="1" style="stop-color:#3137A2"/>
		</linearGradient>
		<path class="st2" d="M353.8,513.4l-9.6-4.2c-0.3-1.1-0.7-2.3-1-3.4l5.4-9.2c1.4-2.4,1.4-5.4,0.1-7.9c-2.9-5.2-6.4-10.1-10.5-14.6
			c-1.9-2.2-4.9-3.1-7.8-2.5l-10.1,2.3c-0.9-0.7-1.7-1.3-2.6-1.9l-1-10.7c-0.3-3.2-2.4-5.8-5.4-6.9l-15.1-5.1
			c-3.1-1-6.5-0.1-8.6,2.4l-7.1,8.2h-2.8l-7.1-8.2c-2.1-2.5-5.5-3.4-8.6-2.4l-15.1,5.1c-3,1-5.1,3.7-5.4,6.9l-1,10.7
			c-0.9,0.6-1.8,1.3-2.6,1.9l-10.1-2.3c-2.8-0.7-5.8,0.3-7.8,2.5c-4,4.5-7.5,9.4-10.5,14.6c-1.4,2.5-1.4,5.5,0.1,7.9l5.4,9.2
			c-0.4,1.1-0.7,2.2-1,3.4l-9.6,4.2c-2.9,1.3-4.8,4.1-4.8,7.3V537c0,3.2,1.9,6,4.8,7.3l9.6,4.2c0.3,1.1,0.7,2.3,1,3.4l-5.4,9.2
			c-1.6,2.7-1.4,6.1,0.4,8.7l9.4,13.2c1.9,2.6,5.1,3.9,8.3,3.1l10.1-2.3c0.9,0.7,1.7,1.3,2.6,1.9l1,10.7c0.3,3.2,2.4,5.8,5.4,6.9
			l15.1,5.1c3.1,1,6.5,0.1,8.6-2.4l7.1-8.2h2.8l7.1,8.2c2.1,2.5,5.5,3.4,8.6,2.4l15.1-5.1c3-1,5.1-3.7,5.4-6.9l1-10.7
			c0.9-0.6,1.8-1.3,2.6-1.9l10.1,2.3c2.8,0.7,5.8-0.3,7.8-2.5c4-4.5,7.5-9.4,10.4-14.6c1.4-2.5,1.4-5.5-0.1-7.9l-5.4-9.2
			c0.4-1.1,0.7-2.2,1-3.4l9.6-4.2c2.9-1.3,4.8-4.1,4.8-7.3v-16.3C358.5,517.6,356.7,514.7,353.8,513.4z M334.1,535.5
			c-2.3,1-4,3.1-4.6,5.5c-0.7,2.9-1.5,5.8-2.7,8.6c-1,2.3-0.8,4.9,0.5,7.1l4.9,8.4c-1,1.5-2,3-3.1,4.4l-9.1-2.1
			c-2.5-0.6-5.1,0.1-7.1,1.8c-2.2,1.9-4.6,3.7-7.1,5.3c-2.1,1.3-3.5,3.6-3.8,6.1l-0.9,9.4l-5.1,1.7l-6-6.9c-1.5-1.8-3.7-2.8-6.1-2.8
			h-10.1c-2.3,0-4.5,1-6.1,2.8l-6,6.9l-5.1-1.7l-0.9-9.4c-0.2-2.5-1.6-4.7-3.8-6.1c-2.5-1.5-4.9-3.3-7.1-5.2
			c-1.9-1.7-4.6-2.4-7.1-1.8l-8.7,2l-3.3-4.7l4.7-8c1.2-2.2,1.4-4.8,0.5-7.1c-1.1-2.8-2-5.7-2.7-8.6c-0.6-2.5-2.3-4.5-4.6-5.5
			l-8.4-3.7V526l8.4-3.7c2.3-1,4-3.1,4.6-5.5c0.7-2.9,1.5-5.8,2.7-8.6c1-2.3,0.8-4.9-0.5-7.1l-4.9-8.4c1-1.5,2-3,3.1-4.4l9.1,2.1
			c2.5,0.6,5.1-0.1,7.1-1.8c2.2-1.9,4.6-3.7,7.1-5.3c2.1-1.3,3.5-3.6,3.8-6.1l0.9-9.4l5.1-1.7l6,6.9c1.5,1.8,3.7,2.8,6.1,2.8h10.1
			c2.3,0,4.5-1,6.1-2.8l6-6.9l5.1,1.7l0.9,9.4c0.2,2.5,1.6,4.7,3.8,6.1c2.5,1.5,4.9,3.3,7.1,5.2c1.9,1.7,4.6,2.4,7.1,1.8l9.1-2.1
			c1.1,1.4,2.2,2.9,3.1,4.4l-4.9,8.4c-1.2,2.2-1.4,4.8-0.5,7.1c1.1,2.8,2,5.6,2.7,8.6c0.6,2.5,2.3,4.5,4.6,5.5l8.4,3.7v5.9
			L334.1,535.5z"/>
	</g>
</g>
<g>
	<g>
		<linearGradient id="SVGID_4_" gradientUnits="userSpaceOnUse" x1="239" y1="528.89" x2="319" y2="528.89">
			<stop  offset="0" style="stop-color:#050958"/>
			<stop  offset="1" style="stop-color:#3137A2"/>
		</linearGradient>
		<path class="st3" d="M279,488.9c-22.1,0-40,17.9-40,40s17.9,40,40,40s40-17.9,40-40C319,506.8,301.1,488.9,279,488.9z M279,552.9
			c-13.3,0-24-10.7-24-24s10.7-24,24-24s24,10.7,24,24C303,542.1,292.2,552.9,279,552.9z"/>
	</g>
</g>
<g>
	<g>
		<linearGradient id="SVGID_5_" gradientUnits="userSpaceOnUse" x1="383" y1="656.89" x2="399" y2="656.89">
			<stop  offset="0" style="stop-color:#050958"/>
			<stop  offset="1" style="stop-color:#3137A2"/>
		</linearGradient>
		<rect x="383" y="648.9" class="st4" width="16" height="16"/>
	</g>
</g>
<g>
	<g>
		<linearGradient id="SVGID_6_" gradientUnits="userSpaceOnUse" x1="415" y1="656.89" x2="431" y2="656.89">
			<stop  offset="0" style="stop-color:#050958"/>
			<stop  offset="1" style="stop-color:#3137A2"/>
		</linearGradient>
		<rect x="415" y="648.9" class="st5" width="16" height="16"/>
	</g>
</g>
</svg>
