<?xml version="1.0" encoding="utf-8"?>
<!-- Generator: Adobe Illustrator 19.0.1, SVG Export Plug-In . SVG Version: 6.00 Build 0)  -->
<svg version="1.1" id="Capa_1" xmlns="http://www.w3.org/2000/svg" xmlns:xlink="http://www.w3.org/1999/xlink" x="0px" y="0px"
	 viewBox="-268 391.9 58 58" style="enable-background:new -268 391.9 58 58;" xml:space="preserve">
<style type="text/css">
	.st0{fill:url(#SVGID_1_);}
	.st1{fill:url(#SVGID_2_);}
	.st2{fill:url(#SVGID_3_);}
	.st3{fill:url(#SVGID_4_);}
</style>
<g>
	<linearGradient id="SVGID_1_" gradientUnits="userSpaceOnUse" x1="-238.329" y1="436.89" x2="-212.328" y2="436.89">
		<stop  offset="0" style="stop-color:#050958"/>
		<stop  offset="1" style="stop-color:#3137A2"/>
	</linearGradient>
	<path class="st0" d="M-213.1,434.8l-1.4-0.3c-0.7-0.1-1.2-0.6-1.5-1.2c-0.3-0.6-0.2-1.3,0.2-1.9l0.9-1.2c0.3-0.4,0.3-1-0.1-1.3
		l-2-2c-0.3-0.3-0.9-0.4-1.3-0.1l-1.2,0.8c-0.6,0.4-1.3,0.5-1.9,0.2c-0.6-0.3-1.1-0.8-1.2-1.5l-0.2-1.5c-0.1-0.5-0.5-0.8-1-0.8h-2.8
		c-0.5,0-0.9,0.3-1,0.8l-0.4,1.9c-0.1,0.7-0.6,1.2-1.2,1.4c-0.6,0.3-1.3,0.2-1.9-0.2l-1.6-1.1c-0.4-0.3-0.9-0.2-1.3,0.1l-2,2
		c-0.4,0.3-0.4,0.9-0.1,1.3l0.9,1.2c0.4,0.6,0.5,1.2,0.2,1.9c-0.3,0.6-0.8,1.1-1.5,1.2l-1.4,0.3c-0.5,0.1-0.8,0.5-0.8,1v2.8
		c0,0.5,0.4,0.9,0.8,1l1.5,0.2c0.7,0.1,1.2,0.5,1.5,1.2c0.3,0.6,0.2,1.3-0.2,1.9l-0.8,1.2c-0.3,0.4-0.2,0.9,0.1,1.3l2,2
		c0.3,0.3,0.9,0.4,1.3,0.1l1.2-0.9c0.6-0.4,1.2-0.5,1.9-0.2c0.6,0.3,1.1,0.8,1.2,1.5l0.3,1.4c0.1,0.5,0.5,0.8,1,0.8h2.8
		c0.5,0,0.9-0.4,1-0.8l0.2-1.1c0.1-0.7,0.6-1.3,1.2-1.5c0.6-0.3,1.4-0.2,1.9,0.2l0.9,0.6c0.4,0.3,1,0.2,1.3-0.1l2-2
		c0.3-0.3,0.4-0.9,0.1-1.3l-0.8-1.2c-0.4-0.6-0.5-1.3-0.2-1.9c0.3-0.6,0.8-1.1,1.5-1.2l1.5-0.2c0.5-0.1,0.8-0.5,0.8-1v-2.8
		C-212.3,435.3-212.7,434.8-213.1,434.8z M-214.3,437.6l-0.7,0.1c-1.4,0.2-2.5,1.1-3,2.3c-0.5,1.3-0.4,2.7,0.4,3.8l0.4,0.5l-0.8,0.8
		l-0.2-0.1c-1.1-0.8-2.6-1-3.9-0.5c-1.3,0.5-2.2,1.7-2.4,3.1l0,0.2h-1.1l-0.1-0.6c-0.3-1.3-1.2-2.4-2.4-2.9
		c-1.3-0.5-2.7-0.3-3.8,0.5l-0.5,0.4l-0.8-0.8l0.4-0.5c0.8-1.1,0.9-2.6,0.4-3.8c-0.5-1.3-1.7-2.1-3-2.3l-0.7-0.1v-1.1l0.6-0.1
		c1.3-0.3,2.4-1.2,2.9-2.4c0.5-1.3,0.3-2.7-0.5-3.8l-0.4-0.5l0.8-0.8l0.9,0.6c1.1,0.8,2.5,0.9,3.7,0.4c1.2-0.5,2.1-1.6,2.4-2.9
		l0.2-1.1h1.1l0.1,0.7c0.2,1.4,1.1,2.5,2.3,3c1.3,0.5,2.7,0.4,3.8-0.4l0.5-0.4l0.8,0.8l-0.4,0.5c-0.8,1.1-1,2.5-0.5,3.8
		c0.5,1.3,1.6,2.2,2.9,2.4l0.6,0.1C-214.3,436.6-214.3,437.6-214.3,437.6z"/>
	<linearGradient id="SVGID_2_" gradientUnits="userSpaceOnUse" x1="-230.328" y1="436.89" x2="-220.328" y2="436.89">
		<stop  offset="0" style="stop-color:#050958"/>
		<stop  offset="1" style="stop-color:#3137A2"/>
	</linearGradient>
	<path class="st1" d="M-225.3,431.9c-2.8,0-5,2.2-5,5c0,2.8,2.2,5,5,5c2.8,0,5-2.2,5-5C-220.3,434.1-222.6,431.9-225.3,431.9z
		 M-225.3,439.9c-1.7,0-3-1.3-3-3c0-1.7,1.3-3,3-3c1.7,0,3,1.3,3,3C-222.3,438.5-223.7,439.9-225.3,439.9z"/>
	<linearGradient id="SVGID_3_" gradientUnits="userSpaceOnUse" x1="-253.318" y1="410.89" x2="-239.318" y2="410.89">
		<stop  offset="0" style="stop-color:#050958"/>
		<stop  offset="1" style="stop-color:#3137A2"/>
	</linearGradient>
	<path class="st2" d="M-246.3,403.9c-3.9,0-7,3.1-7,7c0,3.9,3.1,7,7,7c3.9,0,7-3.1,7-7C-239.3,407-242.5,403.9-246.3,403.9z
		 M-246.3,415.9c-2.8,0-5-2.2-5-5c0-2.8,2.2-5,5-5c2.8,0,5,2.2,5,5C-241.3,413.6-243.6,415.9-246.3,415.9z"/>
	<linearGradient id="SVGID_4_" gradientUnits="userSpaceOnUse" x1="-265.6714" y1="419.239" x2="-227.3079" y2="419.239">
		<stop  offset="0" style="stop-color:#050958"/>
		<stop  offset="1" style="stop-color:#3137A2"/>
	</linearGradient>
	<path class="st3" d="M-243.5,439.3l-3,3.9l-13.8-19.9c-5.2-6.9-4.5-18.3,1.6-24.4c3.2-3.2,7.6-5,12.1-5s8.9,1.8,12.1,5
		c5.4,5.4,6.6,15.5,2.8,22.5c-0.3,0.5-0.1,1.1,0.4,1.4c0.5,0.3,1.1,0.1,1.4-0.4c4.3-7.9,3-18.8-3.1-24.9c-3.6-3.6-8.4-5.6-13.6-5.6
		c-5.1,0-9.9,2-13.6,5.6c-6.7,6.7-7.5,19.3-1.8,27l15.3,22.1l4.7-6.1c0.3-0.4,0.3-1.1-0.2-1.4C-242.5,438.8-243.1,438.8-243.5,439.3
		z"/>
</g>
</svg>
