<?xml version="1.0" encoding="utf-8"?>
<!-- Generator: Adobe Illustrator 19.0.1, SVG Export Plug-In . SVG Version: 6.00 Build 0)  -->
<svg version="1.1" id="Capa_1" xmlns="http://www.w3.org/2000/svg" xmlns:xlink="http://www.w3.org/1999/xlink" x="0px" y="0px"
	 viewBox="-57 180.8 480.1 480.1" style="enable-background:new -57 180.8 480.1 480.1;" xml:space="preserve">
<style type="text/css">
	.st0{fill:url(#SVGID_1_);}
	.st1{fill:url(#SVGID_2_);}
	.st2{fill:url(#SVGID_3_);}
	.st3{fill:url(#SVGID_4_);}
	.st4{fill:url(#SVGID_5_);}
	.st5{fill:url(#SVGID_6_);}
	.st6{fill:url(#SVGID_7_);}
	.st7{fill:url(#SVGID_8_);}
	.st8{fill:url(#SVGID_9_);}
	.st9{fill:url(#SVGID_10_);}
	.st10{fill:url(#SVGID_11_);}
	.st11{fill:url(#SVGID_12_);}
	.st12{fill:url(#SVGID_13_);}
	.st13{fill:url(#SVGID_14_);}
	.st14{fill:url(#SVGID_15_);}
	.st15{fill:url(#SVGID_16_);}
	.st16{fill:url(#SVGID_17_);}
	.st17{fill:url(#SVGID_18_);}
	.st18{fill:url(#SVGID_19_);}
	.st19{fill:url(#SVGID_20_);}
</style>
<g>
	<g>
		<linearGradient id="SVGID_1_" gradientUnits="userSpaceOnUse" x1="-57.0011" y1="516.861" x2="119.027" y2="516.861">
			<stop  offset="0" style="stop-color:#050958"/>
			<stop  offset="1" style="stop-color:#3137A2"/>
		</linearGradient>
		<path class="st0" d="M115.9,558.5l-59.5-46.3c-8.1-6.2-18.8-7.7-28.3-4L9.6,406c-1.1-17.8-15.3-32-33.1-33.2
			c-9.4,0.2-18.2,4.5-24.1,11.9c-6.1,7.6-9.4,17-9.3,26.8L-57,552.9c-0.6,22.2,9.7,43.3,27.6,56.5l52.4,32v11.5c0,4.4,3.6,8,8,8h80
			c4.4,0,8-3.6,8-8v-88C119,562.4,117.9,560.1,115.9,558.5z M103,644.9H39v-8c0-2.8-1.5-5.4-3.8-6.8l-55.9-34.1
			c-13.3-10.2-20.9-26.2-20.2-43l0.2-141.4c-0.1-6,1.9-11.9,5.6-16.6c2.8-3.7,7.1-5.9,11.8-6.1c9.8,1.3,17.2,9.7,17.3,19.6
			l20.3,111.9c-2.7,4.5-4.2,9.6-4.2,14.8c0,7.7,3.1,15,8.5,20.4l39,39l11.3-11.3l-39-39c-2.4-2.4-3.8-5.6-3.8-9.1c0-3,1-5.8,2.9-8.1
			c0.7-0.8,1.5-1.6,2.3-2.2c4.6-3.5,11-3.4,15.5,0.1l56.4,43.8L103,644.9L103,644.9z"/>
	</g>
</g>
<g>
	<g>
		<linearGradient id="SVGID_2_" gradientUnits="userSpaceOnUse" x1="247.028" y1="516.8605" x2="423.058" y2="516.8605">
			<stop  offset="0" style="stop-color:#050958"/>
			<stop  offset="1" style="stop-color:#3137A2"/>
		</linearGradient>
		<path class="st1" d="M423,552.9l-0.2-141.4c0.1-9.7-3.2-19.2-9.3-26.8c-5.9-7.4-14.7-11.7-24.1-11.9c-17.6,1.1-31.7,15.1-33,32.7
			l-18.6,102.7c-9.5-3.8-20.2-2.2-28.3,4l-59.4,46.2c-1.9,1.5-3.1,3.8-3.1,6.3v88c0,4.4,3.6,8,8,8h80c4.4,0,8-3.6,8-8v-11.5
			l52.7-32.2C413.5,596,423.7,575,423,552.9z M387.1,595.7L387.1,595.7L330.9,630c-2.4,1.5-3.8,4-3.8,6.8v8h-64v-76.1l56.3-43.8
			c4.5-3.5,10.9-3.6,15.5-0.2c0.9,0.7,1.7,1.4,2.4,2.3c1.8,2.3,2.8,5.2,2.9,8.1c0,3.4-1.4,6.7-3.8,9.1l-39,39l11.3,11.3l39-39
			c5.4-5.4,8.5-12.7,8.5-20.4c0-5.3-1.5-10.4-4.2-14.9L372.3,408c0.2-9.7,7.5-17.9,17.2-19.1c4.6,0.1,9,2.4,11.8,6.1
			c3.7,4.7,5.7,10.6,5.6,16.6l0.2,141.4C407.7,569.5,400.3,585.5,387.1,595.7z"/>
	</g>
</g>
<g>
	<g>
		<linearGradient id="SVGID_3_" gradientUnits="userSpaceOnUse" x1="87.028" y1="348.861" x2="279.028" y2="348.861">
			<stop  offset="0" style="stop-color:#050958"/>
			<stop  offset="1" style="stop-color:#3137A2"/>
		</linearGradient>
		<path class="st2" d="M271,252.9H95c-4.4,0-8,3.6-8,8v176c0,4.4,3.6,8,8,8h176c4.4,0,8-3.6,8-8v-176
			C279,256.4,275.4,252.9,271,252.9z M263,428.9H103v-160h160V428.9z"/>
	</g>
</g>
<g>
	<g>
		<linearGradient id="SVGID_4_" gradientUnits="userSpaceOnUse" x1="213.149" y1="501.365" x2="247.781" y2="501.365">
			<stop  offset="0" style="stop-color:#050958"/>
			<stop  offset="1" style="stop-color:#3137A2"/>
		</linearGradient>
		<path class="st3" d="M241.6,489.2c-9.2,3.8-18.7,6.8-28.5,8.7l3.1,15.7c10.8-2.2,21.3-5.4,31.5-9.6L241.6,489.2z"/>
	</g>
</g>
<g>
	<g>
		<linearGradient id="SVGID_5_" gradientUnits="userSpaceOnUse" x1="64.173" y1="225.3315" x2="98.505" y2="225.3315">
			<stop  offset="0" style="stop-color:#050958"/>
			<stop  offset="1" style="stop-color:#3137A2"/>
		</linearGradient>
		<path class="st4" d="M89.6,209.2c-9.1,6.1-17.6,13.1-25.4,20.9l11.3,11.3c7-7,14.7-13.4,23-18.9L89.6,209.2z"/>
	</g>
</g>
<g>
	<g>
		<linearGradient id="SVGID_6_" gradientUnits="userSpaceOnUse" x1="118.598" y1="196.2615" x2="153.22" y2="196.2615">
			<stop  offset="0" style="stop-color:#050958"/>
			<stop  offset="1" style="stop-color:#3137A2"/>
		</linearGradient>
		<path class="st5" d="M150.1,184.1c-10.8,2.1-21.3,5.4-31.5,9.6l6.1,14.8c9.2-3.8,18.7-6.7,28.5-8.7L150.1,184.1z"/>
	</g>
</g>
<g>
	<g>
		<linearGradient id="SVGID_7_" gradientUnits="userSpaceOnUse" x1="90.184" y1="489.949" x2="125.336" y2="489.949">
			<stop  offset="0" style="stop-color:#050958"/>
			<stop  offset="1" style="stop-color:#3137A2"/>
		</linearGradient>
		<path class="st6" d="M99,475.6l-8.9,13.3c9.2,6.1,18.9,11.3,29.1,15.4l6.1-14.8C116.1,485.7,107.3,481.1,99,475.6z"/>
	</g>
</g>
<g>
	<g>
		<linearGradient id="SVGID_8_" gradientUnits="userSpaceOnUse" x1="267.825" y1="472.183" x2="302.138" y2="472.183">
			<stop  offset="0" style="stop-color:#050958"/>
			<stop  offset="1" style="stop-color:#3137A2"/>
		</linearGradient>
		<path class="st7" d="M290.8,456.1c-7,7.1-14.7,13.4-23,19l8.9,13.3c9.1-6.1,17.6-13.2,25.4-21L290.8,456.1z"/>
	</g>
</g>
<g>
	<g>
		<linearGradient id="SVGID_9_" gradientUnits="userSpaceOnUse" x1="150.801" y1="507.4645" x2="183.532" y2="507.4645">
			<stop  offset="0" style="stop-color:#050958"/>
			<stop  offset="1" style="stop-color:#3137A2"/>
		</linearGradient>
		<path class="st8" d="M183,500.9c-9.8,0-19.6-0.9-29.2-2.8l-3.1,15.7c10.6,2.1,21.4,3.1,32.2,3.1h0.5L183,500.9z"/>
	</g>
</g>
<g>
	<g>
		<linearGradient id="SVGID_10_" gradientUnits="userSpaceOnUse" x1="241.017" y1="207.9235" x2="276.17" y2="207.9235">
			<stop  offset="0" style="stop-color:#050958"/>
			<stop  offset="1" style="stop-color:#3137A2"/>
		</linearGradient>
		<path class="st9" d="M247.1,193.5l-6.1,14.8c9.2,3.8,18,8.5,26.3,14l8.9-13.3C267,202.9,257.3,197.7,247.1,193.5z"/>
	</g>
</g>
<g>
	<g>
		<linearGradient id="SVGID_11_" gradientUnits="userSpaceOnUse" x1="182.86" y1="190.2905" x2="215.602" y2="190.2905">
			<stop  offset="0" style="stop-color:#050958"/>
			<stop  offset="1" style="stop-color:#3137A2"/>
		</linearGradient>
		<path class="st10" d="M183,180.9h-0.2l0.2,16c9.9,0,19.8,1,29.5,2.9l3.1-15.7C204.9,181.9,194,180.9,183,180.9z"/>
	</g>
</g>
<g>
	<g>
		<linearGradient id="SVGID_12_" gradientUnits="userSpaceOnUse" x1="290.337" y1="247.043" x2="322.571" y2="247.043">
			<stop  offset="0" style="stop-color:#050958"/>
			<stop  offset="1" style="stop-color:#3137A2"/>
		</linearGradient>
		<path class="st11" d="M301.6,229.9l-11.3,11.3c7,7,13.4,14.7,19,23l13.3-8.9C316.4,246.2,309.4,237.6,301.6,229.9z"/>
	</g>
</g>
<g>
	<g>
		<linearGradient id="SVGID_13_" gradientUnits="userSpaceOnUse" x1="18.356" y1="396.4575" x2="42.786" y2="396.4575">
			<stop  offset="0" style="stop-color:#050958"/>
			<stop  offset="1" style="stop-color:#3137A2"/>
		</linearGradient>
		<path class="st12" d="M34,379.1l-15.7,3.2c2.2,10.8,5.4,21.3,9.7,31.5l14.8-6.2C38.9,398.4,36,388.9,34,379.1z"/>
	</g>
</g>
<g>
	<g>
		<linearGradient id="SVGID_14_" gradientUnits="userSpaceOnUse" x1="43.684" y1="450.9385" x2="75.946" y2="450.9385">
			<stop  offset="0" style="stop-color:#050958"/>
			<stop  offset="1" style="stop-color:#3137A2"/>
		</linearGradient>
		<path class="st13" d="M56.9,433.8l-13.3,9c6.2,9.1,13.2,17.6,21,25.4l11.3-11.4C68.9,449.7,62.5,442,56.9,433.8z"/>
	</g>
</g>
<g>
	<g>
		<linearGradient id="SVGID_15_" gradientUnits="userSpaceOnUse" x1="27.763" y1="273.144" x2="56.595" y2="273.144">
			<stop  offset="0" style="stop-color:#050958"/>
			<stop  offset="1" style="stop-color:#3137A2"/>
		</linearGradient>
		<path class="st14" d="M43.3,255.6c-6.1,9.1-11.3,18.9-15.5,29l14.8,6.1c3.8-9.2,8.5-18,14.1-26.3L43.3,255.6z"/>
	</g>
</g>
<g>
	<g>
		<linearGradient id="SVGID_16_" gradientUnits="userSpaceOnUse" x1="15.029" y1="332.828" x2="33.916" y2="332.828">
			<stop  offset="0" style="stop-color:#050958"/>
			<stop  offset="1" style="stop-color:#3137A2"/>
		</linearGradient>
		<path class="st15" d="M18.2,316.1c-2.1,10.8-3.2,21.8-3.2,32.7v0.7l16-0.7c0-10,1-19.9,2.9-29.6L18.2,316.1z"/>
	</g>
</g>
<g>
	<g>
		<linearGradient id="SVGID_17_" gradientUnits="userSpaceOnUse" x1="323.395" y1="301.5875" x2="347.767" y2="301.5875">
			<stop  offset="0" style="stop-color:#050958"/>
			<stop  offset="1" style="stop-color:#3137A2"/>
		</linearGradient>
		<path class="st16" d="M338.2,284.3l-14.8,6.2c3.8,9.2,6.7,18.7,8.7,28.5l15.7-3.1C345.6,305,342.4,294.4,338.2,284.3z"/>
	</g>
</g>
<g>
	<g>
		<linearGradient id="SVGID_18_" gradientUnits="userSpaceOnUse" x1="309.646" y1="424.277" x2="338.435" y2="424.277">
			<stop  offset="0" style="stop-color:#050958"/>
			<stop  offset="1" style="stop-color:#3137A2"/>
		</linearGradient>
		<path class="st17" d="M323.6,406.7c-3.8,9.2-8.5,18-14,26.3l13.3,8.9c6.1-9.2,11.3-18.9,15.5-29.1L323.6,406.7z"/>
	</g>
</g>
<g>
	<g>
		<linearGradient id="SVGID_19_" gradientUnits="userSpaceOnUse" x1="332.204" y1="364.893" x2="351.028" y2="364.893">
			<stop  offset="0" style="stop-color:#050958"/>
			<stop  offset="1" style="stop-color:#3137A2"/>
		</linearGradient>
		<path class="st18" d="M335,348.9c0,9.8-0.9,19.7-2.8,29.3l15.7,3.1c2.1-10.7,3.1-21.5,3.1-32.4v-0.3L335,348.9z"/>
	</g>
</g>
<g>
	<g>
		<linearGradient id="SVGID_20_" gradientUnits="userSpaceOnUse" x1="119.028" y1="344.8607" x2="247.0273" y2="344.8607">
			<stop  offset="0" style="stop-color:#050958"/>
			<stop  offset="1" style="stop-color:#3137A2"/>
		</linearGradient>
		<path class="st19" d="M245.6,328c-1.5-2.1-3.9-3.4-6.5-3.4h-37l-11.4-34.3c-1.4-4.2-5.9-6.5-10.1-5.1c-2.4,0.8-4.3,2.7-5.1,5.1
			L164,324.6h-37c-4.4,0-8,3.6-8,8c0,2.6,1.3,5,3.4,6.5l29.8,21.1l-11.3,34.1c-1.4,4.2,0.9,8.7,5.1,10.1c2.4,0.8,5.1,0.4,7.2-1.1
			l30-21.3l30,21.3c3.6,2.6,8.6,1.7,11.2-1.9c1.5-2.1,1.9-4.7,1.1-7.2l-11.3-34.1l29.8-21.1C247.3,336.5,248.1,331.6,245.6,328z
			 M199.8,350.6c-2.9,2-4.1,5.7-3,9.1l5.5,16.5l-14.7-10.4c-2.8-2-6.5-2-9.3,0l-14.7,10.4l5.5-16.5c1.1-3.3-0.1-7-3-9.1l-14.1-10
			h17.7c3.4,0,6.5-2.2,7.6-5.5l5.6-16.9l5.6,16.9c1.1,3.3,4.1,5.5,7.6,5.5h17.7L199.8,350.6z"/>
	</g>
</g>
</svg>
