<?xml version="1.0" encoding="utf-8"?>
<!-- Generator: Adobe Illustrator 19.0.1, SVG Export Plug-In . SVG Version: 6.00 Build 0)  -->
<svg version="1.1" id="Capa_1" xmlns="http://www.w3.org/2000/svg" xmlns:xlink="http://www.w3.org/1999/xlink" x="0px" y="0px"
	 viewBox="-41 164.9 512 512" style="enable-background:new -41 164.9 512 512;" xml:space="preserve">
<style type="text/css">
	.st0{fill:url(#SVGID_1_);}
	.st1{fill:url(#SVGID_2_);}
	.st2{fill:url(#SVGID_3_);}
	.st3{fill:url(#SVGID_4_);}
	.st4{fill:url(#SVGID_5_);}
	.st5{fill:url(#SVGID_6_);}
	.st6{fill:url(#SVGID_7_);}
</style>
<g>
	<g>
		<linearGradient id="SVGID_1_" gradientUnits="userSpaceOnUse" x1="140.331" y1="335.5555" x2="236.331" y2="335.5555">
			<stop  offset="0" style="stop-color:#050958"/>
			<stop  offset="1" style="stop-color:#3137A2"/>
		</linearGradient>
		<rect x="140.3" y="324.9" class="st0" width="96" height="21.3"/>
	</g>
</g>
<g>
	<g>
		<linearGradient id="SVGID_2_" gradientUnits="userSpaceOnUse" x1="-41" y1="420.889" x2="471" y2="420.889">
			<stop  offset="0" style="stop-color:#050958"/>
			<stop  offset="1" style="stop-color:#3137A2"/>
		</linearGradient>
		<path class="st1" d="M417.7,164.9H12.3c-29.4,0-53.3,23.9-53.3,53.3v405.3c0,29.4,23.9,53.3,53.3,53.3H183v-21.3H12.3
			c-17.7,0-32-14.3-32-32V218.2c0-17.7,14.3-32,32-32h405.3c17.7,0,32,14.3,32,32v181.3H471V218.2
			C471,188.8,447.1,164.9,417.7,164.9z"/>
	</g>
</g>
<g>
	<g>
		<linearGradient id="SVGID_3_" gradientUnits="userSpaceOnUse" x1="279" y1="266.221" x2="300.333" y2="266.221">
			<stop  offset="0" style="stop-color:#050958"/>
			<stop  offset="1" style="stop-color:#3137A2"/>
		</linearGradient>
		<rect x="279" y="207.6" class="st2" width="21.3" height="117.3"/>
	</g>
</g>
<g>
	<g>
		<linearGradient id="SVGID_4_" gradientUnits="userSpaceOnUse" x1="129.667" y1="303.556" x2="172.333" y2="303.556">
			<stop  offset="0" style="stop-color:#050958"/>
			<stop  offset="1" style="stop-color:#3137A2"/>
		</linearGradient>
		<path class="st3" d="M151,378.2L151,378.2V207.6h-21.3v170.7c0,11.8,9.6,21.3,21.3,21.3h21.3v-21.3L151,378.2L151,378.2z"/>
	</g>
</g>
<g>
	<g>
		<linearGradient id="SVGID_5_" gradientUnits="userSpaceOnUse" x1="23" y1="570.2225" x2="108.334" y2="570.2225">
			<stop  offset="0" style="stop-color:#050958"/>
			<stop  offset="1" style="stop-color:#3137A2"/>
		</linearGradient>
		<path class="st4" d="M97.7,527.6h-64c-5.9,0-10.7,4.8-10.7,10.7v64c0,5.9,4.8,10.7,10.7,10.7h64c5.9,0,10.7-4.8,10.7-10.7v-64
			C108.3,532.3,103.6,527.6,97.7,527.6z M87,591.6H44.3v-42.7H87V591.6z"/>
	</g>
</g>
<g>
	<g>
		<linearGradient id="SVGID_6_" gradientUnits="userSpaceOnUse" x1="150.998" y1="516.889" x2="471" y2="516.889">
			<stop  offset="0" style="stop-color:#050958"/>
			<stop  offset="1" style="stop-color:#3137A2"/>
		</linearGradient>
		<path class="st5" d="M460.3,474.2h-40c-0.6-1.5-1.2-3-1.9-4.4l28.3-28.3c4.2-4.2,4.2-10.9,0-15.1l-45.3-45.3c-4.2-4-10.9-4-15.1,0
			l-28.3,28.3c-1.5-0.7-3-1.3-4.4-1.9v-40c0-5.9-4.8-10.7-10.7-10.7h-64c-5.9,0-10.7,4.8-10.7,10.7v40c-1.5,0.6-3,1.2-4.4,1.9
			l-28.3-28.3c-4.2-4-10.9-4-15.1,0l-45.3,45.3c-4.2,4.2-4.2,10.9,0,15.1l28.3,28.3c-0.7,1.5-1.3,3-1.9,4.4h-40
			c-5.9,0-10.7,4.8-10.7,10.7v64c0,5.9,4.8,10.7,10.7,10.7h40c0.6,1.5,1.2,3,1.9,4.4l-28.3,28.3c-4.2,4.2-4.2,10.9,0,15.1l45.3,45.3
			c4.2,4.2,10.9,4.2,15.1,0l28.3-28.3c1.5,0.7,3,1.3,4.4,1.9v40c0,5.9,4.8,10.7,10.7,10.7h64c5.9,0,10.7-4.8,10.7-10.7v-40
			c1.5-0.6,3-1.2,4.4-1.9l28.3,28.3c4.2,4.2,10.9,4.2,15.1,0l45.3-45.3c4.2-4.2,4.2-10.9,0-15.1L418.4,564c0.7-1.5,1.3-3,1.9-4.4h40
			c5.9,0,10.7-4.8,10.7-10.7v-64C471,479,466.2,474.2,460.3,474.2z M449.7,538.2h-36.9c-4.7,0-8.8,3-10.2,7.5
			c-1.7,5.4-3.9,10.6-6.5,15.6c-2.2,4.1-1.4,9.2,1.9,12.5l26.1,26.1L394,630l-26.1-26.1c-3.3-3.3-8.4-4.1-12.5-1.9
			c-5,2.6-10.2,4.8-15.6,6.5c-4.4,1.4-7.5,5.5-7.5,10.2v36.9h-42.7l0-36.9c0-4.7-3-8.8-7.5-10.2c-5.4-1.7-10.6-3.9-15.6-6.5
			c-4.1-2.2-9.2-1.4-12.5,1.9L228,630l-30.2-30.2l26.1-26.1c3.3-3.3,4.1-8.4,1.9-12.5c-2.6-5-4.8-10.2-6.5-15.6
			c-1.4-4.4-5.5-7.5-10.2-7.5h-36.9v-42.7h36.9c4.7,0,8.8-3,10.2-7.5c1.7-5.4,3.9-10.6,6.5-15.6c2.2-4.1,1.4-9.2-1.9-12.5
			l-26.1-26.1l30.2-30.2l26.1,26.1c3.3,3.3,8.4,4.1,12.5,1.9c5-2.6,10.2-4.8,15.6-6.5c4.4-1.4,7.5-5.5,7.5-10.2v-36.9h42.7v36.9
			c0,4.7,3,8.8,7.5,10.2c5.4,1.7,10.6,3.9,15.6,6.5c4.1,2.2,9.2,1.4,12.5-1.9l26.1-26.1l30.2,30.2L398,460
			c-3.3,3.3-4.1,8.4-1.9,12.5c2.6,5,4.8,10.2,6.5,15.6c1.4,4.4,5.5,7.5,10.2,7.5h36.9V538.2z"/>
	</g>
</g>
<g>
	<g>
		<linearGradient id="SVGID_7_" gradientUnits="userSpaceOnUse" x1="257.667" y1="516.889" x2="364.333" y2="516.889">
			<stop  offset="0" style="stop-color:#050958"/>
			<stop  offset="1" style="stop-color:#3137A2"/>
		</linearGradient>
		<path class="st6" d="M311,463.6c-29.5,0-53.3,23.9-53.3,53.3s23.9,53.3,53.3,53.3c29.4,0,53.3-23.9,53.3-53.3
			C364.3,487.4,340.5,463.6,311,463.6z M311,548.9c-17.7,0-32-14.3-32-32c0-17.7,14.3-32,32-32s32,14.3,32,32
			C343,534.6,328.7,548.9,311,548.9z"/>
	</g>
</g>
</svg>
