<?xml version="1.0" encoding="utf-8"?>
<!-- Generator: Adobe Illustrator 19.0.1, SVG Export Plug-In . SVG Version: 6.00 Build 0)  -->
<svg version="1.1" id="Layer_1" xmlns="http://www.w3.org/2000/svg" xmlns:xlink="http://www.w3.org/1999/xlink" x="0px" y="0px"
	 viewBox="-152 275.3 290.6 290.6" style="enable-background:new -152 275.3 290.6 290.6;" xml:space="preserve">
<style type="text/css">
	.st0{fill:url(#SVGID_1_);}
</style>
<g>
	<g>
		<linearGradient id="SVGID_1_" gradientUnits="userSpaceOnUse" x1="-152" y1="420.5775" x2="138.625" y2="420.5775">
			<stop  offset="0" style="stop-color:#050958"/>
			<stop  offset="1" style="stop-color:#3137A2"/>
		</linearGradient>
		<path class="st0" d="M138.6,378.4v-28.1H79.8c1.6-2.8,2.6-5.9,2.6-9.4c0-10.3-8.4-18.8-18.8-18.8H-2c-10.3,0-18.8,8.4-18.8,18.8
			c0,3.4,1,6.6,2.6,9.4H-77v28.1h14.1v178.1h-23.4v-18.8h-14.1v-51.6h-9.4V349.9c18.5-2.3,32.8-18.1,32.8-37.2
			c0-20.7-16.8-37.5-37.5-37.5s-37.5,16.8-37.5,37.5c0,19.1,14.3,34.9,32.8,37.2v136.3h-9.4v51.6h-14.1v18.8h-9.4v9.4h9.4h56.3h225
			v-9.4h-14.1V378.4H138.6z M-142.6,312.8c0-15.5,12.6-28.1,28.1-28.1s28.1,12.6,28.1,28.1c0,15.5-12.6,28.1-28.1,28.1
			S-142.6,328.3-142.6,312.8z M-119.2,495.6h9.4v42.2h-9.4V495.6z M-95.7,556.5h-37.5v-9.4h4.7h28.1h4.7V556.5z M-2,331.5h65.6
			c5.2,0,9.4,4.2,9.4,9.4c0,5.2-4.2,9.4-9.4,9.4H-2c-5.2,0-9.4-4.2-9.4-9.4C-11.4,335.7-7.2,331.5-2,331.5z M82.4,556.5H-20.8v-32.8
			H82.4V556.5z M-30.1,495.6v-23.4H91.8v23.4H-30.1z M82.4,514.3H-20.8V505H82.4V514.3z M115.2,556.5H91.8v0v-32.8h14.1v-9.4H91.8
			V505h9.4v-42.2H-39.5V505h9.4v9.4h-14.1v9.4h14.1v32.8h-23.4V444h168.7V556.5z M115.2,434.6H-53.6v-37.5h168.7V434.6z
			 M115.2,387.8H-53.6v-9.4h168.7V387.8z M-67.6,369v-9.4H-2h65.6h65.6v9.4H-67.6z"/>
	</g>
</g>
</svg>
