<?xml version="1.0" encoding="utf-8"?>
<!-- Generator: Adobe Illustrator 19.0.1, SVG Export Plug-In . SVG Version: 6.00 Build 0)  -->
<svg version="1.1" id="Layer_1" xmlns="http://www.w3.org/2000/svg" xmlns:xlink="http://www.w3.org/1999/xlink" x="0px" y="0px"
	 viewBox="-108 303.8 551 574" style="enable-background:new -108 303.8 551 574;" xml:space="preserve">
<style type="text/css">
	.st0{fill:#F9F9F9;}
</style>
<g>
	<g>
		<g>
			<g>
				<path class="st0" d="M292,645.5c0,1.9-0.7,3.7-2.1,5c-1.3,1.3-3.1,2.1-5,2.1h-51.2c-3.9,0-7-3.2-7-7c0-3.8,3.2-7,7-7h51.2
					C288.8,638.5,292,641.6,292,645.5z"/>
			</g>
			<g>
				<path class="st0" d="M377.3,457.8v170.7c0,3.9-3.2,7-7,7s-7-3.2-7-7V464.8H285c-22.7,0-41.2-18.5-41.2-41.2v-42.7
					c0-3.9,3.2-7,7-7c3.9,0,7,3.2,7,7v42.7c0,14.9,12.1,27.1,27.1,27.1h85.3C374.1,450.8,377.3,453.9,377.3,457.8z"/>
			</g>
			<g>
				<path class="st0" d="M292,543.1c0,3.9-3.2,7-7,7h-68.3c-3.9,0-7-3.2-7-7c0-3.8,3.2-7,7-7H285c1.9,0,3.6,0.7,5,2.1
					C291.2,539.5,292,541.3,292,543.1z"/>
			</g>
			<g>
				<path class="st0" d="M189.5,543.1c0,1.9-0.7,3.6-2.1,5c-1.3,1.3-3.1,2.1-5,2.1h-51.2c-3.9,0-7-3.2-7-7s3.2-7,7-7h51.2
					C186.4,536.1,189.5,539.2,189.5,543.1z"/>
			</g>
			<g>
				<path class="st0" d="M155.4,594.3c0,3.9-3.2,7-7,7h-17.1c-3.9,0-7-3.2-7-7c0-3.9,3.2-7,7-7h17.1
					C152.3,587.3,155.4,590.4,155.4,594.3z"/>
			</g>
			<g>
				<path class="st0" d="M223.7,491.9c0,3.9-3.1,7-7,7h-85.3c-3.9,0-7-3.2-7-7c0-3.9,3.2-7,7-7h85.3
					C220.5,484.9,223.7,488.1,223.7,491.9z"/>
			</g>
			<g>
				<path class="st0" d="M274.9,594.3c0,3.9-3.2,7-7,7h-85.3c-3.9,0-7-3.2-7-7c0-3.9,3.2-7,7-7h85.3
					C271.7,587.3,274.9,590.4,274.9,594.3z"/>
			</g>
			<g>
				<path class="st0" d="M257.8,696.7c0,3.9-3.2,7-7,7h-17.1c-3.9,0-7-3.2-7-7c0-3.9,3.2-7,7-7h17.1
					C254.7,689.7,257.8,692.9,257.8,696.7z"/>
			</g>
			<g>
				<path class="st0" d="M206.6,645.5c0,3.9-3.2,7-7,7h-68.3c-3.9,0-7-3.2-7-7s3.2-7,7-7h68.3C203.5,638.5,206.6,641.6,206.6,645.5z
					"/>
			</g>
			<g>
				<path class="st0" d="M206.6,696.7c0,3.9-3.2,7-7,7h-68.3c-3.9,0-7-3.2-7-7c0-3.9,3.2-7,7-7h68.3
					C203.5,689.7,206.6,692.9,206.6,696.7z"/>
			</g>
			<g>
				<path class="st0" d="M401.7,682.4l-17.1-17.1c-6.3-6.3-14.2-9.4-22-9.4c-7.9,0-15.8,3.1-22,9.4L228.7,777.1
					c-1.3,1.3-2.1,3.1-2.1,5v51.2c0,3.9,3.2,7,7,7h51.2c1.9,0,3.7-0.8,5-2.1l111.8-111.8C414.7,713.4,414.7,695.3,401.7,682.4z
					 M328.5,697.3l15.7,15.7l-76.3,76.3l-15.6-15.7L328.5,697.3z M240.8,826.2v-44.3l44.3,44.3H240.8z M293.5,814.8l-15.7-15.7
					l76.2-76.2l15.7,15.7L293.5,814.8z M391.8,716.5l-12.1,12.1l-41.3-41.3l12.1-12.1c7.4-7.3,16.8-7.3,24.2,0l17.1,17.1
					C399.2,699.8,399.2,709,391.8,716.5z"/>
			</g>
			<g>
				<path class="st0" d="M343.2,423.7c0,1.9-0.7,3.6-2.1,5c-1.3,1.3-3.1,2.1-5,2.1s-3.7-0.7-5-2.1l-83.3-83.3H-22.3
					c-14.9,0-27.1,12.1-27.1,27.1v426.7c0,15,12.2,27.1,27.1,27.1h221.9c3.9,0,7,3.2,7,7c0,3.9-3.2,7-7,7H-22.3
					c-22.7,0-41.2-18.5-41.2-41.2V372.5c0-22.7,18.5-41.2,41.2-41.2h273.1c1.9,0,3.7,0.8,5,2.1l85.3,85.3
					C342.4,420,343.2,421.8,343.2,423.7z"/>
			</g>
			<g>
				<path class="st0" d="M206.6,747.9c0,3.9-3.2,7-7,7h-68.3c-3.9,0-7-3.2-7-7c0-3.9,3.2-7,7-7h68.3
					C203.5,740.9,206.6,744.1,206.6,747.9z"/>
			</g>
			<g>
				<path class="st0" d="M80.1,484.9H28.9c-3.9,0-7,3.2-7,7v51.2c0,3.9,3.2,7,7,7h51.2c3.9,0,7-3.2,7-7v-51.2
					C87.2,488.1,84,484.9,80.1,484.9z M73.1,536.1H36V499h37.1V536.1z"/>
			</g>
			<g>
				<path class="st0" d="M80.1,689.7H28.9c-3.9,0-7,3.2-7,7v51.2c0,3.9,3.2,7,7,7h51.2c3.9,0,7-3.2,7-7v-51.2
					C87.2,692.9,84,689.7,80.1,689.7z M73.1,740.9H36v-37.1h37.1V740.9z"/>
			</g>
			<g>
				<path class="st0" d="M86,598.2l-34.1,51.2c-1.2,1.8-3.1,2.9-5.2,3.1c-0.2,0-0.4,0-0.7,0c-1.8,0-3.7-0.8-5-2.1l-17.1-17.1
					c-2.7-2.7-2.7-7.2,0-10c1.3-1.3,3.1-2.1,5-2.1s3.6,0.7,5,2.1l11,11l29.4-44.1c2.2-3.2,6.5-4.1,9.8-2
					C87.2,590.6,88.1,595,86,598.2z"/>
			</g>
		</g>
	</g>
</g>
</svg>
