<?xml version="1.0" encoding="utf-8"?>
<!-- Generator: Adobe Illustrator 19.0.1, SVG Export Plug-In . SVG Version: 6.00 Build 0)  -->
<svg version="1.1" id="Capa_1" xmlns="http://www.w3.org/2000/svg" xmlns:xlink="http://www.w3.org/1999/xlink" x="0px" y="0px"
	 viewBox="-55 178.9 484 484" style="enable-background:new -55 178.9 484 484;" xml:space="preserve">
<style type="text/css">
	.st0{fill:url(#SVGID_1_);}
	.st1{fill:url(#SVGID_2_);}
	.st2{fill:url(#SVGID_3_);}
	.st3{fill:url(#SVGID_4_);}
	.st4{fill:url(#SVGID_5_);}
	.st5{fill:url(#SVGID_6_);}
	.st6{fill:url(#SVGID_7_);}
</style>
<g>
	<g>
		<linearGradient id="SVGID_1_" gradientUnits="userSpaceOnUse" x1="164.968" y1="501.5095" x2="428.968" y2="501.5095">
			<stop  offset="0" style="stop-color:#050958"/>
			<stop  offset="1" style="stop-color:#3137A2"/>
		</linearGradient>
		<path class="st0" d="M421,373.5H319.4l-36-24c-7.8-5.2-17-8-26.4-8h-3.7c-13.4,0-24.3,10.9-24.3,24.3v7.7h-40
			c-13.3,0-24,10.7-24,24s10.7,24,24,24v45.3c0,12,8.1,22.4,19.6,25.6l-23.2,46.4c-23.6,37.4-12.4,86.8,24.9,110.4
			c37.4,23.6,86.8,12.4,110.4-24.9c15.5-24.6,16.5-55.7,2.5-81.2l-18.6-49.6H421c4.4,0,8-3.6,8-8v-104
			C429,377,425.4,373.5,421,373.5z M245,365.8c0-4.6,3.7-8.3,8.3-8.3h3.7c6.2,0,12.3,1.8,17.5,5.3l16.1,10.7H245L245,365.8
			L245,365.8z M308.3,549.2c0.1,0.4,0.3,0.7,0.5,1.1c17.3,30.8,6.3,69.8-24.6,87.1c-30.8,17.3-69.8,6.3-87.1-24.6
			c-11.5-20.6-10.8-45.9,1.9-65.7c0.1-0.2,0.3-0.5,0.4-0.7l26.4-52.9h61.5L308.3,549.2z M309,477.5h-16h-77.3
			c-5.9,0-10.7-4.8-10.7-10.7v-53.3c0-4.4-3.6-8-8-8h-8c-4.4,0-8-3.6-8-8s3.6-8,8-8h120V477.5z M373,477.5h-48v-88h48V477.5z
			 M413,477.5h-24v-88h24V477.5z"/>
	</g>
</g>
<g>
	<g>
		<linearGradient id="SVGID_2_" gradientUnits="userSpaceOnUse" x1="-35.032" y1="296.905" x2="156.968" y2="296.905">
			<stop  offset="0" style="stop-color:#050958"/>
			<stop  offset="1" style="stop-color:#3137A2"/>
		</linearGradient>
		<path class="st1" d="M61,220.3l-96,52.4v100.8h192V272.7L61,220.3z M77,357.5H45v-40h32V357.5z M141,357.5H93v-56H29v56h-48v-75.2
			l80-43.6l80,43.6V357.5z"/>
	</g>
</g>
<g>
	<g>
		<linearGradient id="SVGID_3_" gradientUnits="userSpaceOnUse" x1="-55" y1="220.329" x2="176.936" y2="220.329">
			<stop  offset="0" style="stop-color:#050958"/>
			<stop  offset="1" style="stop-color:#3137A2"/>
		</linearGradient>
		<polygon class="st2" points="61,180.3 -55,246.5 -47.1,260.4 61,198.7 169,260.4 176.9,246.5 		"/>
	</g>
</g>
<g>
	<g>
		<linearGradient id="SVGID_4_" gradientUnits="userSpaceOnUse" x1="228.968" y1="573.461" x2="276.968" y2="573.461">
			<stop  offset="0" style="stop-color:#050958"/>
			<stop  offset="1" style="stop-color:#3137A2"/>
		</linearGradient>
		<path class="st3" d="M277,557.5v-8c0-10.1-6.4-19.1-16-22.5v-9.5h-16v9.5c-9.6,3.4-16,12.4-16,22.5v8c0,13.3,10.7,24,24,24
			c4.4,0,8,3.6,8,8v8c0,4.4-3.6,8-8,8s-8-3.6-8-8h-16c0,10.1,6.4,19.2,16,22.5v9.5h16V620c9.6-3.4,16-12.4,16-22.5v-8
			c0-13.3-10.7-24-24-24c-4.4,0-8-3.6-8-8v-8c0-4.4,3.6-8,8-8s8,3.6,8,8v8H277z"/>
	</g>
</g>
<g>
	<g>
		<linearGradient id="SVGID_5_" gradientUnits="userSpaceOnUse" x1="340.968" y1="461.461" x2="356.968" y2="461.461">
			<stop  offset="0" style="stop-color:#050958"/>
			<stop  offset="1" style="stop-color:#3137A2"/>
		</linearGradient>
		<rect x="341" y="453.5" class="st4" width="16" height="16"/>
	</g>
</g>
<g>
	<g>
		<linearGradient id="SVGID_6_" gradientUnits="userSpaceOnUse" x1="12.968" y1="505.813" x2="143.248" y2="505.813">
			<stop  offset="0" style="stop-color:#050958"/>
			<stop  offset="1" style="stop-color:#3137A2"/>
		</linearGradient>
		<path class="st5" d="M29,421.5H13c0.3,77.7,51.3,146.2,125.7,168.7l4.6-15.3C75.6,554.3,29.3,492.1,29,421.5z"/>
	</g>
</g>
<g>
	<g>
		<linearGradient id="SVGID_7_" gradientUnits="userSpaceOnUse" x1="188.968" y1="299.177" x2="348.032" y2="299.177">
			<stop  offset="0" style="stop-color:#050958"/>
			<stop  offset="1" style="stop-color:#3137A2"/>
		</linearGradient>
		<path class="st6" d="M189,245.5v16c61.8,0.2,118,35.7,144.6,91.4L348,346C318.7,284.8,256.9,245.7,189,245.5z"/>
	</g>
</g>
</svg>
