<?xml version="1.0" encoding="utf-8"?>
<!-- Generator: Adobe Illustrator 19.0.1, SVG Export Plug-In . SVG Version: 6.00 Build 0)  -->
<svg version="1.1" id="Capa_1" xmlns="http://www.w3.org/2000/svg" xmlns:xlink="http://www.w3.org/1999/xlink" x="0px" y="0px"
	 viewBox="-80.5 331.3 509.1 508.8" style="enable-background:new -80.5 331.3 509.1 508.8;" xml:space="preserve">
<style type="text/css">
	.st0{fill:url(#SVGID_1_);}
	.st1{fill:url(#SVGID_2_);}
	.st2{fill:url(#SVGID_3_);}
</style>
<g>
	<g>
		<linearGradient id="SVGID_1_" gradientUnits="userSpaceOnUse" x1="-80.5" y1="585.715" x2="428.6" y2="585.715">
			<stop  offset="0" style="stop-color:#050958"/>
			<stop  offset="1" style="stop-color:#3137A2"/>
		</linearGradient>
		<path class="st0" d="M416.4,428.5c-7.8-7.8-18.1-12.1-29.1-12.1h-29.6l19.4-19.4c5.6-5.7,8.7-13.2,8.7-21.2s-3.1-15.5-8.8-21.2
			l-14.7-14.7c-11.9-11.4-30.6-11.4-42.5,0l-76.5,76.5H-7.3c-16.8,0-30.5,13.7-30.5,30.5v78.5l-40,40c-3.6,3.6-3.6,9.4,0,13l40,40
			v105.9c0,16.8,13.7,30.5,30.5,30.5H98.6l82.6,82.6c1.7,1.7,4,2.7,6.5,2.7c2.4,0,4.8-1,6.5-2.7l60.9-60.9c3.6-3.6,3.6-9.4,0-13
			l-8.7-8.7h99.8v54.8c0,5.1,4.1,9.2,9.2,9.2h32c22.7,0,41.2-18.5,41.2-41.2v-320C428.5,446.6,424.2,436.3,416.4,428.5z
			 M332.8,352.9c4.6-4.4,11.9-4.4,16.5,0l15,14.9c4.4,4.6,4.3,11.8-0.2,16.3l-23,23l-31.3-31.2L332.8,352.9z M296.8,388.9l31.3,31.3
			L208.4,539.9l-31.3-31.3L296.8,388.9z M191.4,548.8l-34.9,11.6l11.6-34.9L191.4,548.8z M-7.3,736.5c-6.7,0-12.2-5.5-12.2-12.2
			v-87.6l99.8,99.8H-7.3z M187.7,818L-58.4,571.9l48-48l31.2,31.2l-23,22.9l13,13l22.9-23l29.7,29.7l-22.9,22.9l13,13l22.9-22.9
			l29.7,29.7l-22.9,22.9l13,13l22.9-22.9l29.7,29.7l-22.9,23l13,13l23-23l29.7,29.7l-23,22.9l13,13l22.9-23l31.2,31.2L187.7,818z
			 M387.3,800.5h-22.8v-45.7h22.8c12.6,0,22.8,10.3,22.8,22.8C410.2,790.2,399.9,800.5,387.3,800.5z M410.2,743.3l-2.3-1.3
			c-6.2-3.6-13.3-5.5-20.6-5.5H228.1l-232-232c-3.6-3.6-9.4-3.6-13,0l-2.6,2.6V447c0-6.7,5.5-12.2,12.2-12.2H225l-67.3,67.3
			c-1,1-1.8,2.2-2.2,3.6l-0.5,1.4l0,0l-21.7,65c-0.3,0.9-0.5,1.9-0.5,2.9c0,2.5,1,4.8,2.7,6.5s4,2.7,6.5,2.7h158.5v-18.3h-102
			l11.2-3.8l0,0l1.4-0.5c1.4-0.5,2.6-1.2,3.6-2.2l124.5-124.5h48c12.6,0,22.8,10.2,22.8,22.8v285.6H410.2z"/>
	</g>
	<g>
		<linearGradient id="SVGID_2_" gradientUnits="userSpaceOnUse" x1="324.8" y1="574.94" x2="343.1" y2="574.94">
			<stop  offset="0" style="stop-color:#050958"/>
			<stop  offset="1" style="stop-color:#3137A2"/>
		</linearGradient>
		<rect x="324.8" y="565.8" class="st1" width="18.3" height="18.3"/>
	</g>
	<g>
		<linearGradient id="SVGID_3_" gradientUnits="userSpaceOnUse" x1="367.5" y1="574.94" x2="385.8" y2="574.94">
			<stop  offset="0" style="stop-color:#050958"/>
			<stop  offset="1" style="stop-color:#3137A2"/>
		</linearGradient>
		<rect x="367.5" y="565.8" class="st2" width="18.3" height="18.3"/>
	</g>
</g>
</svg>
